<?xml version="1.0" encoding="utf-8"?>
<!-- Generator: Adobe Illustrator 28.0.0, SVG Export Plug-In . SVG Version: 6.00 Build 0)  -->
<svg version="1.1" id="Layer_1" xmlns="http://www.w3.org/2000/svg" xmlns:xlink="http://www.w3.org/1999/xlink" x="0px" y="0px"
	 viewBox="0 0 892 332" style="enable-background:new 0 0 892 332;" xml:space="preserve">
<g>
	<path class="st0" d="M71.5,281.9c-3.8,3.3-8.3,5-13.6,5c-6.9,0-12.3-2.6-16.3-7.9c-3.5-4.6-5.3-10.5-5.3-17.6
		c0-7.8,2.1-14.3,6.2-19.4c3.9-4.8,8.8-7.1,14.8-7.1c5.3,0,9.9,1.5,13.6,4.5l-1.9,2.5c-3.4-2.1-7.1-3.1-11-3.1
		c-5.3,0-9.5,2.2-12.5,6.5c-2.9,4-4.4,9.4-4.4,16.2c0,7.3,1.9,12.9,5.7,16.9c3.1,3.2,7.1,4.8,11.8,4.8c4.3,0,8-1.2,11.1-3.7
		L71.5,281.9z" fill = "#D32929"/>
	<path class="st0" d="M94.4,249c5.4,0,9.8,2.1,13.1,6.3c2.7,3.5,4,7.8,4,12.8c0,5.7-1.7,10.4-5.2,14c-3.1,3.3-7.1,4.9-11.9,4.9
		c-5.5,0-9.9-2.1-13.1-6.3c-2.7-3.5-4-7.7-4-12.6c0-5.8,1.7-10.5,5.2-14.1C85.6,250.7,89.6,249,94.4,249z M94.4,252.4
		c-4.2,0-7.5,1.7-9.9,5.2c-2,2.9-3,6.4-3,10.6c0,4.7,1.3,8.5,4,11.5c2.4,2.7,5.4,4,9,4c4.1,0,7.4-1.7,9.8-5.2
		c2.1-2.9,3.1-6.3,3.1-10.4c0-4.8-1.3-8.7-3.9-11.7C101,253.7,98,252.4,94.4,252.4z" fill = "#D32929"/>
	<path class="st0" d="M124.9,254c3.6-3.3,7.8-5,12.4-5c4.3,0,7.7,1.4,10.1,4.2c2.3,2.6,3.5,6.4,3.5,11.2V286h-3.7v-21.2
		c0-8.2-3.6-12.4-10.8-12.4c-4.7,0-8.4,1.8-11.1,5.5V286h-3.7v-36h3.1L124.9,254z" fill = "#D32929"/>
	<path class="st0" d="M168.5,253.1v24c0,4.3,1.8,6.5,5.4,6.5c1.4,0,3-0.4,4.8-1.2l1.3,2.2c-2.2,1.5-4.5,2.2-6.9,2.2
		c-2.5,0-4.5-0.9-6.1-2.7c-1.6-1.8-2.3-4.2-2.3-7.1v-24h-5.6V250h5.6v-8.3l3.6-1.9V250h11.3v3.2H168.5z" fill = "#D32929"/>
	<path class="st0" d="M193,254c3.7-3.3,7.2-5,10.6-5c3.6,0,6.3,1.1,8.1,3.2l-3.1,2.5c-1.7-1.4-3.7-2.1-5.9-2.1
		c-3.3,0-6.4,1.8-9.4,5.4V286h-3.7v-36h3.1L193,254z" fill = "#D32929"/>
	<path class="st0" d="M232.2,249c5.4,0,9.8,2.1,13.1,6.3c2.7,3.5,4,7.8,4,12.8c0,5.7-1.7,10.4-5.2,14c-3.1,3.3-7.1,4.9-11.9,4.9
		c-5.5,0-9.9-2.1-13.1-6.3c-2.7-3.5-4-7.7-4-12.6c0-5.8,1.7-10.5,5.2-14.1C223.4,250.7,227.4,249,232.2,249z M232.2,252.4
		c-4.2,0-7.5,1.7-9.9,5.2c-2,2.9-3,6.4-3,10.6c0,4.7,1.3,8.5,4,11.5c2.4,2.7,5.4,4,9,4c4.1,0,7.4-1.7,9.8-5.2
		c2.1-2.9,3.1-6.3,3.1-10.4c0-4.8-1.3-8.7-3.9-11.7C238.8,253.7,235.8,252.4,232.2,252.4z" fill = "#D32929"/>
	<path class="st0" d="M263,234.8V286h-3.7v-49.1L263,234.8z" fill = "#D32929"/>
	<path class="st0" d="M296.6,234.8V286h-3.7v-49.1L296.6,234.8z" fill = "#D32929"/>
	<path class="st0" d="M308.6,237.7c0-0.8,0.3-1.5,0.8-2c0.6-0.6,1.2-0.8,2-0.8c0.8,0,1.5,0.3,2,0.8c0.6,0.6,0.8,1.2,0.8,2
		c0,0.8-0.3,1.5-0.8,2c-0.6,0.6-1.2,0.8-2,0.8c-0.8,0-1.5-0.3-2-0.8C308.9,239.1,308.6,238.5,308.6,237.7z M313.3,250v36h-3.7v-36
		H313.3z" fill = "#D32929"/>
	<path class="st0" d="M349.3,250l-15.5,14l18.9,22.1h-4.9L330,265V286h-3.7v-49.1l3.7-2.1v28.4l13.9-13.2H349.3z" fill = "#D32929"/>
	<path class="st0" d="M386.7,269.3h-26c0.1,4.4,1.6,7.9,4.6,10.6c2.7,2.4,6.2,3.6,10.4,3.6c3.5,0,6.6-1,9.3-2.9l1.5,2.5
		c-3.2,2.5-7.2,3.8-12.1,3.8c-5.6,0-10-1.9-13.4-5.7c-3-3.4-4.5-7.8-4.5-13.1c0-5.6,1.6-10.3,4.8-14c3-3.4,6.6-5.1,10.9-5.1
		c5.1,0,9,2.2,11.6,6.7c2,3.4,2.9,7.5,2.9,12.5V269.3z M360.8,266.2h22c-0.1-4.4-1.1-7.8-2.9-10.2c-1.9-2.4-4.4-3.6-7.7-3.6
		c-3.1,0-5.7,1.3-7.8,3.8C362.2,258.8,361,262.1,360.8,266.2z" fill = "#D32929"/>
	<path class="st0" d="M441.9,250l-15.8,41.7c-2.4,6.3-5.6,9.5-9.7,9.5c-2.5,0-4.9-0.7-7-2.2l1.3-2.2c1.9,0.8,3.5,1.2,4.9,1.2
		c1.7,0,3.1-0.6,4.2-1.9c1.1-1.3,2.4-3.8,3.8-7.6l1-2.4h-1.3l-14.2-36h4.2l12.5,32.5l11.7-32.5H441.9z" fill = "#D32929"/>
	<path class="st0" d="M463.2,249c5.4,0,9.8,2.1,13.1,6.3c2.7,3.5,4,7.8,4,12.8c0,5.7-1.7,10.4-5.2,14c-3.1,3.3-7.1,4.9-11.9,4.9
		c-5.5,0-9.9-2.1-13.1-6.3c-2.7-3.5-4-7.7-4-12.6c0-5.8,1.7-10.5,5.2-14.1C454.4,250.7,458.4,249,463.2,249z M463.2,252.4
		c-4.2,0-7.5,1.7-9.9,5.2c-2,2.9-3,6.4-3,10.6c0,4.7,1.3,8.5,4,11.5c2.4,2.7,5.4,4,9,4c4.1,0,7.4-1.7,9.8-5.2
		c2.1-2.9,3.1-6.3,3.1-10.4c0-4.8-1.3-8.7-3.9-11.7C469.9,253.7,466.8,252.4,463.2,252.4z" fill = "#D32929"/>
	<path class="st0" d="M515,281.9c-3.6,3.3-7.8,5-12.4,5c-3.8,0-6.8-1.6-9.1-4.7c-2.1-2.8-3.2-6.4-3.2-10.7V250h3.7v21.2
		c0,8.3,3.2,12.4,9.5,12.4c4.6,0,8.3-1.9,11.1-5.6V250h3.7v36h-3.1L515,281.9z" fill = "#D32929"/>
	<path class="st0" d="M532.5,238.9c-1.9,0-2.8-0.9-2.8-2.6c0-2,0.9-2.9,2.8-2.9c2,0,2.9,1.3,2.9,4v7.2l-2.3,0.7v-6.4H532.5z" fill = "#D32929"/>
	<path class="st0" d="M550.9,254c3.7-3.3,7.2-5,10.6-5c3.6,0,6.3,1.1,8.1,3.2l-3.1,2.5c-1.7-1.4-3.7-2.1-5.9-2.1
		c-3.3,0-6.4,1.8-9.4,5.4V286h-3.7v-36h3.1L550.9,254z" fill = "#D32929"/>
	<path class="st0" d="M603.1,269.3h-26c0.1,4.4,1.6,7.9,4.6,10.6c2.7,2.4,6.2,3.6,10.4,3.6c3.5,0,6.6-1,9.3-2.9l1.5,2.5
		c-3.2,2.5-7.2,3.8-12.1,3.8c-5.6,0-10-1.9-13.4-5.7c-3-3.4-4.5-7.8-4.5-13.1c0-5.6,1.6-10.3,4.8-14c3-3.4,6.6-5.1,10.9-5.1
		c5.1,0,9,2.2,11.6,6.7c2,3.4,2.9,7.5,2.9,12.5V269.3z M577.2,266.2h22c-0.1-4.4-1.1-7.8-2.9-10.2c-1.9-2.4-4.4-3.6-7.7-3.6
		c-3.1,0-5.7,1.3-7.8,3.8C578.6,258.8,577.5,262.1,577.2,266.2z" fill = "#D32929"/>
	<path class="st0" d="M637,253.1v24c0,4.3,1.8,6.5,5.4,6.5c1.4,0,3-0.4,4.8-1.2l1.3,2.2c-2.2,1.5-4.5,2.2-6.9,2.2
		c-2.5,0-4.5-0.9-6.1-2.7c-1.6-1.8-2.3-4.2-2.3-7.1v-24h-5.6V250h5.6v-8.3l3.6-1.9V250h11.3v3.2H637z" fill = "#D32929"/>
	<path class="st0" d="M658.1,236.8l3.7-2v18.9c3.5-3.1,7.5-4.7,11.7-4.7c4.5,0,8,1.3,10.4,4c2.3,2.6,3.5,6.4,3.5,11.3V286h-3.7
		v-21.2c0-8.2-3.7-12.4-11-12.4c-2,0-4,0.5-6.1,1.6c-2.1,1.1-3.6,2.4-4.8,3.9V286h-3.7V236.8z" fill = "#D32929"/>
	<path class="st0" d="M727.3,269.3h-26c0.1,4.4,1.6,7.9,4.6,10.6c2.7,2.4,6.2,3.6,10.4,3.6c3.5,0,6.6-1,9.3-2.9l1.5,2.5
		c-3.2,2.5-7.2,3.8-12.1,3.8c-5.6,0-10-1.9-13.4-5.7c-3-3.4-4.5-7.8-4.5-13.1c0-5.6,1.6-10.3,4.8-14c3-3.4,6.6-5.1,10.9-5.1
		c5.1,0,9,2.2,11.6,6.7c2,3.4,2.9,7.5,2.9,12.5V269.3z M701.4,266.2h22c-0.1-4.4-1.1-7.8-2.9-10.2c-1.9-2.4-4.4-3.6-7.7-3.6
		c-3.1,0-5.7,1.3-7.8,3.8C702.8,258.8,701.6,262.1,701.4,266.2z" fill = "#D32929"/>
	<path class="st0" d="M740.7,254c3.7-3.3,7.2-5,10.6-5c3.6,0,6.3,1.1,8.1,3.2l-3.1,2.5c-1.7-1.4-3.7-2.1-5.9-2.1
		c-3.3,0-6.4,1.8-9.4,5.4V286h-3.7v-36h3.1L740.7,254z" fill = "#D32929"/>
	<path class="st0" d="M793,269.3h-26c0.1,4.4,1.6,7.9,4.6,10.6c2.7,2.4,6.2,3.6,10.4,3.6c3.5,0,6.6-1,9.3-2.9l1.5,2.5
		c-3.2,2.5-7.2,3.8-12.1,3.8c-5.6,0-10-1.9-13.4-5.7c-3-3.4-4.5-7.8-4.5-13.1c0-5.6,1.6-10.3,4.8-14c3-3.4,6.6-5.1,10.9-5.1
		c5.1,0,9,2.2,11.6,6.7c2,3.4,2.9,7.5,2.9,12.5V269.3z M767,266.2h22c-0.1-4.4-1.1-7.8-2.9-10.2c-1.9-2.4-4.4-3.6-7.7-3.6
		c-3.1,0-5.7,1.3-7.8,3.8C768.5,258.8,767.3,262.1,767,266.2z" fill = "#D32929"/>
</g>
<path class="st1" d="M97.3,212.9" fill = "#E99623"/>
<g>
	<path class="st2" d="M844.2,86.4H838v-1.6h14.8v1.6H846v18.7h-1.8V86.4z" fill="#ffffff"/>
	<path class="st2" d="M865.5,103.5c0.3-0.8,0.8-2.1,1.4-3.9c2.5-6.7,4.3-11.6,5.6-14.8h2v20.3h-1.8v-17c-1.8,5.1-3.9,10.8-6.3,17
		h-1.9c-2.4-6.3-4.5-11.9-6.3-17v17h-1.8V84.8h2.1c1.1,2.8,2.8,7.3,5,13.5l0.3,0.8C864.6,101.2,865.2,102.6,865.5,103.5z" fill="#ffffff"/>
</g>
<g>
	<path class="st2" d="M178.7,155.2c0-6.6,1.1-12.8,3.3-18.5c2.2-5.7,5.3-10.7,9.3-14.9c4-4.2,8.6-7.5,13.9-9.9
		c5.3-2.4,11-3.6,17-3.6c6,0,11.7,1.2,17,3.6c5.3,2.4,9.9,5.6,13.9,9.8c4,4.1,7.1,9,9.3,14.6c2.2,5.6,3.3,11.7,3.3,18.2v6.1h-69.5
		c0.7,4.1,1.8,7.7,3.3,10.8c1.6,3.2,3.5,5.9,5.9,8.1c2.3,2.2,4.9,3.9,7.8,5c2.8,1.1,5.8,1.7,9,1.7c4.4,0,8.1-0.7,11.2-2.2
		c3.1-1.5,5.6-3.2,7.5-5.2c2.2-2.1,4.1-4.6,5.5-7.4h18.4c-2.1,5.8-5.1,11-8.9,15.4c-1.7,1.9-3.6,3.7-5.7,5.6
		c-2.1,1.9-4.6,3.5-7.4,4.9c-2.8,1.4-5.9,2.6-9.4,3.4c-3.5,0.9-7.3,1.3-11.4,1.3c-6,0-11.7-1.2-17-3.6c-5.3-2.4-9.9-5.7-13.9-9.9
		c-4-4.2-7.1-9.1-9.3-14.9C179.8,167.9,178.7,161.8,178.7,155.2z M247.4,146.3c-0.4-2.6-1.3-5.2-2.5-7.8c-1.2-2.6-2.9-4.9-5-6.8
		c-2.1-1.9-4.6-3.5-7.5-4.8c-2.9-1.2-6.3-1.9-10-1.9c-2.9,0-5.7,0.5-8.5,1.4c-2.7,0.9-5.2,2.3-7.5,4.2c-2.3,1.8-4.2,4.1-5.8,6.7
		c-1.6,2.7-2.7,5.6-3.3,8.9H247.4z" fill = "#ffffff"/>
	<path class="st2" d="M286.8,114.1h17.6v11.7h0.8c1.4-2.5,3.3-4.7,5.7-6.7c2-1.7,4.6-3.2,7.7-4.6c3.1-1.4,7-2.1,11.7-2.1
		c5.5,0,10,0.8,13.5,2.5c3.5,1.7,6.3,3.5,8.5,5.5c2.5,2.3,4.4,5,5.7,7.9h0.8c1.6-2.9,3.7-5.5,6.5-7.9c2.2-2,5.2-3.9,9-5.5
		c3.7-1.7,8.3-2.5,13.8-2.5c9.7,0,17.4,3,23.2,9.1c5.7,6.1,8.6,15,8.6,26.9v51.1h-17.6v-50.2c0-7.1-1.6-12.4-4.8-15.8
		c-3.2-3.4-7.7-5.1-13.6-5.1c-2.9,0-5.7,0.6-8.3,1.8c-2.6,1.2-4.9,2.8-7,5c-2,2.2-3.6,4.7-4.8,7.7c-1.2,3-1.8,6.2-1.8,9.8v46.9
		h-17.6v-50.2c0-7.1-1.6-12.4-4.8-15.8c-3.2-3.4-7.7-5.1-13.6-5.1c-2.9,0-5.7,0.6-8.3,1.8c-2.6,1.2-4.9,2.8-6.9,5s-3.6,4.7-4.8,7.7
		c-1.2,3-1.8,6.2-1.8,9.8v46.9h-17.6V114.1z" fill = "#ffffff"/>
	<path class="st2" d="M439.2,155.2c0-6.6,1.1-12.8,3.4-18.5c2.3-5.7,5.4-10.7,9.4-14.9c4-4.2,8.7-7.5,14.1-9.9
		c5.4-2.4,11.2-3.6,17.5-3.6c6.3,0,12.1,1.2,17.5,3.6c5.4,2.4,10.1,5.7,14.1,9.9c4,4.2,7.1,9.1,9.4,14.9c2.3,5.7,3.4,11.9,3.4,18.5
		c0,6.6-1.1,12.8-3.4,18.5c-2.3,5.7-5.4,10.7-9.4,14.9c-4,4.2-8.7,7.5-14.1,9.9c-5.4,2.4-11.2,3.6-17.5,3.6
		c-6.3,0-12.1-1.2-17.5-3.6c-5.4-2.4-10.1-5.7-14.1-9.9c-4-4.2-7.1-9.1-9.4-14.9C440.4,167.9,439.2,161.8,439.2,155.2z M457.6,155.2
		c0,4.7,0.6,9,1.9,12.8c1.3,3.8,3.1,7.1,5.4,9.7c2.3,2.7,5,4.7,8.2,6.2c3.2,1.5,6.7,2.2,10.5,2.2c3.8,0,7.3-0.7,10.5-2.2
		c3.2-1.5,5.9-3.5,8.2-6.2c2.3-2.7,4.1-5.9,5.4-9.7c1.3-3.8,1.9-8.1,1.9-12.8c0-4.7-0.6-9-1.9-12.8c-1.3-3.8-3.1-7.1-5.4-9.7
		c-2.3-2.7-5-4.7-8.2-6.2c-3.2-1.5-6.7-2.2-10.5-2.2c-3.8,0-7.3,0.7-10.5,2.2c-3.2,1.5-5.9,3.5-8.2,6.2c-2.3,2.7-4.1,5.9-5.4,9.7
		C458.3,146.1,457.6,150.4,457.6,155.2z" fill = "#ffffff"/>
	<path class="st2" d="M536.3,110.8h10V95.7H564v15.1h26v15.9h-26v56.9h26.8v15.9h-44.4v-72.8h-10V110.8z" fill = "#ffffff"/>
	<path class="st2" d="M700.7,82.3h17.6v101.3h19.3v15.9h-36.8V82.3z" fill = "#ffffff"/>
	<path class="st2" d="M763.3,110.8l18.4,72h9.2l20.1-72h18.4l-35.2,120.6h-18.4l10-31.8h-17.6l-23.4-88.8H763.3z" fill = "#ffffff"/>
	<path class="st2" d="M597.3,155.2c0-6.6,1.1-12.8,3.3-18.5c2.2-5.7,5.3-10.7,9.3-14.9c4-4.2,8.6-7.5,13.9-9.9
		c5.3-2.4,11-3.6,17-3.6c6,0,11.7,1.2,17,3.6c5.3,2.4,9.9,5.6,13.9,9.8c4,4.1,7.1,9,9.3,14.6c2.2,5.6,3.3,11.7,3.3,18.2v6.1h-69.5
		c0.7,4.1,1.8,7.7,3.3,10.8c1.6,3.2,3.5,5.9,5.9,8.1c2.3,2.2,4.9,3.9,7.8,5c2.8,1.1,5.8,1.7,9,1.7c4.4,0,8.1-0.7,11.2-2.2
		c3.1-1.5,5.6-3.2,7.5-5.2c2.2-2.1,4.1-4.6,5.5-7.4h18.4c-2.1,5.8-5.1,11-8.9,15.4c-1.7,1.9-3.6,3.7-5.7,5.6
		c-2.1,1.9-4.6,3.5-7.4,4.9c-2.8,1.4-5.9,2.6-9.4,3.4c-3.5,0.9-7.3,1.3-11.4,1.3c-6,0-11.7-1.2-17-3.6c-5.3-2.4-9.9-5.7-13.9-9.9
		c-4-4.2-7.1-9.1-9.3-14.9C598.4,167.9,597.3,161.8,597.3,155.2z M665.9,146.3c-0.4-2.6-1.3-5.2-2.5-7.8c-1.2-2.6-2.9-4.9-5-6.8
		c-2.1-1.9-4.6-3.5-7.5-4.8c-2.9-1.2-6.3-1.9-10-1.9c-2.9,0-5.7,0.5-8.5,1.4c-2.7,0.9-5.2,2.3-7.5,4.2c-2.3,1.8-4.2,4.1-5.8,6.7
		c-1.6,2.7-2.7,5.6-3.3,8.9H665.9z" fill = "#ffffff"/>
</g>
<path class="st0" d="M70.8,113.7c0,6.6,2,12.7,5.4,17.8l-15.1,9.7c-5.2-7.9-8.3-17.3-8.3-27.5c0-18.1,9.7-33.9,24.1-42.7l9.6,15.2
	C77.1,91.7,70.8,101.9,70.8,113.7z" fill = "#D32929"/>
<path class="st0" d="M39.1,114.4c0,12,3.3,23.2,9.1,32.8l-15.7,10.7c-8.1-12.2-12-28.3-12-44.7c0-29.4,15.4-54.7,37.5-66.1l9.6,15.7
	C50.7,74.3,39.1,92.4,39.1,114.4z" fill = "#D32929"/>
<path class="st2" d="M168.5,195.7c-7.1,3.8-14.2,7.5-21.3,11.1c-1.9,1-3-0.1-3.8-1.7c-3.1-6-6.3-12-9.5-18
	c-4.8-9.1-9.6-18.2-14.4-27.2c0-0.1-0.1-0.2-0.1-0.2c-1.1,0.4-2.3,0.8-3.5,1.1c-5.8,1.6-12,2.2-18.2,1.5l-0.1,0.4l-1.8,7.4
	c-0.9,4.9-1.7,9.8-2.6,14.8c-0.6,3.3-1.4,3.8-4.6,3.1c-9.9-2.3-19.8-4.5-29.6-6.9c-1.6-0.4-2.4-0.3-2.6,1.5
	c-0.2,1.7-0.7,3.2-1.1,4.9c-0.4,1.7-1.6,2.4-3.2,2c-4.6-1-9.2-2-13.8-3.2c-1.5-0.4-2.2-1.6-1.8-3.2c1.8-7.7,3.6-15.4,5.4-23.2
	c0.5-2.1,2-2.4,3.9-1.9c0.2,0.1,0.4,0.1,0.6,0.1c8.2,1.9,16.4,3.8,24.6,5.7c0.2,0,0.4,0.1,0.6,0.1l2.8,0.7l1.6,0.4l0.5,0.1l2-8.6
	l0.6-2.5l0,0l0,0l0,0l0.5-2.1c0-0.1,0-0.2,0-0.2c0,0,0,0,0,0l2.6-12l0.3-1.4c5.5,4.5,12.5,7.2,20.2,7.2c17.6,0,31.9-14.3,31.9-31.8
	c0-17.6-14.3-31.9-31.9-31.9c-2.8,0-5.5,0.4-8,1l3.9-17.7c1.3-0.1,2.7-0.2,4.1-0.2c27.1,0,49,21.9,49,49c0,14-5.9,26.7-15.4,35.6
	l0.2,0.4c0.1,0.2,0.2,0.3,0.3,0.5c1.4,2.6,2.7,5.1,4.1,7.7c3.9,7.3,7.8,14.7,11.6,22c0.6,1.3,1.2,1.5,2.4,0.8
	c1.5-0.9,3.1-1.7,4.7-2.4c1.5-0.8,2.8-0.5,3.7,1c2.2,4.2,4.4,8.3,6.6,12.5C170.4,193.7,169.9,195,168.5,195.7z" fill = "#ffffff"/>
<path class="st3" d="M107.2,120.3c4.1-2.7,5.4-8.4,2.8-12.6c-2.7-4.3-8.7-5.7-12.9-3c-4.4,2.8-5.6,8.6-2.8,12.9
	C97.1,122,102.8,123.2,107.2,120.3z" fill = "#D32929"/>
</svg>
