<?xml version="1.0" encoding="UTF-8" standalone="no" ?>
<!DOCTYPE svg PUBLIC "-//W3C//DTD SVG 1.1//EN" "http://www.w3.org/Graphics/SVG/1.1/DTD/svg11.dtd">
<svg xmlns="http://www.w3.org/2000/svg" xmlns:xlink="http://www.w3.org/1999/xlink" version="1.1" width="1080" height="1080" viewBox="0 0 1080 1080" xml:space="preserve">
<desc>Created with Fabric.js 5.2.4</desc>
<defs>
</defs>
<g transform="matrix(1 0 0 1 540 540)" id="06b7ee0d-c620-425b-bb63-7c38701569fb"  >
<rect style="stroke: none; stroke-width: 1; stroke-dasharray: none; stroke-linecap: butt; stroke-dashoffset: 0; stroke-linejoin: miter; stroke-miterlimit: 4; fill: rgb(255,255,255); fill-rule: nonzero; opacity: 1; visibility: hidden;" vector-effect="non-scaling-stroke"  x="-540" y="-540" rx="0" ry="0" width="1080" height="1080" />
</g>
<g transform="matrix(1 0 0 1 540 540)" id="8d99a58e-5651-421d-bf39-00dfee5c0c75"  >
</g>
<g transform="matrix(4.07 0 0 4.07 540 540)"  >
<g style="" vector-effect="non-scaling-stroke"   >
		<g transform="matrix(1 0 0 1 -25.64 -21.04)"  >
<path style="stroke: none; stroke-width: 1; stroke-dasharray: none; stroke-linecap: butt; stroke-dashoffset: 0; stroke-linejoin: miter; stroke-miterlimit: 4; fill: rgb(211,41,41); fill-rule: nonzero; opacity: 1;" vector-effect="non-scaling-stroke"  transform=" translate(-69.65, -106.1)" d="M 70.8 113.7 C 70.8 120.3 72.8 126.4 76.2 131.5 L 61.1 141.2 C 55.9 133.29999999999998 52.8 123.89999999999999 52.8 113.69999999999999 C 52.8 95.6 62.5 79.79999999999998 76.9 70.99999999999999 L 86.5 86.19999999999999 C 77.1 91.7 70.8 101.9 70.8 113.7 z" stroke-linecap="round" />
</g>
		<g transform="matrix(1 0 0 1 -51.24 -24.64)"  >
<path style="stroke: none; stroke-width: 1; stroke-dasharray: none; stroke-linecap: butt; stroke-dashoffset: 0; stroke-linejoin: miter; stroke-miterlimit: 4; fill: rgb(211,41,41); fill-rule: nonzero; opacity: 1;" vector-effect="non-scaling-stroke"  transform=" translate(-44.05, -102.5)" d="M 39.1 114.4 C 39.1 126.4 42.4 137.6 48.2 147.2 L 32.5 157.89999999999998 C 24.4 145.7 20.5 129.59999999999997 20.5 113.19999999999997 C 20.5 83.79999999999998 35.9 58.49999999999997 58 47.09999999999998 L 67.6 62.79999999999998 C 50.7 74.3 39.1 92.4 39.1 114.4 z" stroke-linecap="round" />
</g>
		<g transform="matrix(1 0 0 1 7.94 8.9)"  >
<path style="stroke: none; stroke-width: 1; stroke-dasharray: none; stroke-linecap: butt; stroke-dashoffset: 0; stroke-linejoin: miter; stroke-miterlimit: 4; fill: rgb(0,0,0); fill-rule: nonzero; opacity: 1;" vector-effect="non-scaling-stroke"  transform=" translate(-103.24, -136.04)" d="M 168.5 195.7 C 161.4 199.5 154.3 203.2 147.2 206.79999999999998 C 145.29999999999998 207.79999999999998 144.2 206.7 143.39999999999998 205.1 C 140.29999999999998 199.1 137.09999999999997 193.1 133.89999999999998 187.1 C 129.09999999999997 178 124.29999999999998 168.9 119.49999999999997 159.9 C 119.49999999999997 159.8 119.39999999999998 159.70000000000002 119.39999999999998 159.70000000000002 C 118.29999999999998 160.10000000000002 117.09999999999998 160.50000000000003 115.89999999999998 160.8 C 110.09999999999998 162.4 103.89999999999998 163 97.69999999999997 162.3 L 97.59999999999998 162.70000000000002 L 95.79999999999998 170.10000000000002 C 94.89999999999998 175.00000000000003 94.09999999999998 179.90000000000003 93.19999999999999 184.90000000000003 C 92.6 188.20000000000005 91.79999999999998 188.70000000000005 88.6 188.00000000000003 C 78.69999999999999 185.70000000000002 68.8 183.50000000000003 58.99999999999999 181.10000000000002 C 57.39999999999999 180.70000000000002 56.599999999999994 180.8 56.39999999999999 182.60000000000002 C 56.19999999999999 184.3 55.69999999999999 185.8 55.29999999999999 187.50000000000003 C 54.89999999999999 189.20000000000002 53.69999999999999 189.90000000000003 52.09999999999999 189.50000000000003 C 47.499999999999986 188.50000000000003 42.89999999999999 187.50000000000003 38.29999999999998 186.30000000000004 C 36.79999999999998 185.90000000000003 36.09999999999998 184.70000000000005 36.499999999999986 183.10000000000005 C 38.29999999999998 175.40000000000006 40.09999999999999 167.70000000000005 41.899999999999984 159.90000000000006 C 42.399999999999984 157.80000000000007 43.899999999999984 157.50000000000006 45.79999999999998 158.00000000000006 C 45.999999999999986 158.10000000000005 46.19999999999998 158.10000000000005 46.399999999999984 158.10000000000005 C 54.59999999999998 160.00000000000006 62.79999999999998 161.90000000000006 70.99999999999999 163.80000000000004 C 71.19999999999999 163.80000000000004 71.39999999999999 163.90000000000003 71.59999999999998 163.90000000000003 L 74.39999999999998 164.60000000000002 L 75.99999999999997 165.00000000000003 L 76.49999999999997 165.10000000000002 L 78.49999999999997 156.50000000000003 L 79.09999999999997 154.00000000000003 L 79.09999999999997 154.00000000000003 L 79.09999999999997 154.00000000000003 L 79.09999999999997 154.00000000000003 L 79.59999999999997 151.90000000000003 C 79.59999999999997 151.80000000000004 79.59999999999997 151.70000000000005 79.59999999999997 151.70000000000005 C 79.59999999999997 151.70000000000005 79.59999999999997 151.70000000000005 79.59999999999997 151.70000000000005 L 82.19999999999996 139.70000000000005 L 82.49999999999996 138.30000000000004 C 87.99999999999996 142.80000000000004 94.99999999999996 145.50000000000003 102.69999999999996 145.50000000000003 C 120.29999999999995 145.50000000000003 134.59999999999997 131.20000000000002 134.59999999999997 113.70000000000003 C 134.59999999999997 96.10000000000002 120.29999999999997 81.80000000000004 102.69999999999996 81.80000000000004 C 99.89999999999996 81.80000000000004 97.19999999999996 82.20000000000005 94.69999999999996 82.80000000000004 L 98.59999999999997 65.10000000000004 C 99.89999999999996 65.00000000000004 101.29999999999997 64.90000000000003 102.69999999999996 64.90000000000003 C 129.79999999999995 64.90000000000003 151.69999999999996 86.80000000000004 151.69999999999996 113.90000000000003 C 151.69999999999996 127.90000000000003 145.79999999999995 140.60000000000002 136.29999999999995 149.50000000000003 L 136.49999999999994 149.90000000000003 C 136.59999999999994 150.10000000000002 136.69999999999993 150.20000000000005 136.79999999999995 150.40000000000003 C 138.19999999999996 153.00000000000003 139.49999999999994 155.50000000000003 140.89999999999995 158.10000000000002 C 144.79999999999995 165.40000000000003 148.69999999999996 172.8 152.49999999999994 180.10000000000002 C 153.09999999999994 181.40000000000003 153.69999999999993 181.60000000000002 154.89999999999995 180.90000000000003 C 156.39999999999995 180.00000000000003 157.99999999999994 179.20000000000005 159.59999999999994 178.50000000000003 C 161.09999999999994 177.70000000000002 162.39999999999995 178.00000000000003 163.29999999999993 179.50000000000003 C 165.49999999999991 183.70000000000002 167.69999999999993 187.80000000000004 169.89999999999992 192.00000000000003 C 170.4 193.7 169.9 195 168.5 195.7 z" stroke-linecap="round" />
</g>
		<g transform="matrix(1 0 0 1 6.77 -14.54)"  >
<path style="stroke: none; stroke-width: 1; stroke-dasharray: none; stroke-linecap: butt; stroke-dashoffset: 0; stroke-linejoin: miter; stroke-miterlimit: 4; fill: rgb(211,42,41); fill-rule: nonzero; opacity: 1;" vector-effect="non-scaling-stroke"  transform=" translate(-102.07, -112.6)" d="M 107.2 120.3 C 111.3 117.6 112.60000000000001 111.89999999999999 110 107.7 C 107.3 103.4 101.3 102 97.1 104.7 C 92.69999999999999 107.5 91.5 113.3 94.3 117.60000000000001 C 97.1 122 102.8 123.2 107.2 120.3 z" stroke-linecap="round" />
</g>
</g>
</g>
</svg>