<svg width="145" height="156" viewBox="0 0 145 156" fill="none" xmlns="http://www.w3.org/2000/svg">
<path d="M136.129 62.903C136.129 62.903 112.728 76.2808 127.98 118.249C141.526 155.521 92.9737 160.585 74.0964 152.732C49.6434 142.559 41.581 107.388 20.0255 113.618C-1.53006 119.849 -11.4052 69.6952 20.3922 58.4612C59.9469 44.4867 39.8345 27.5816 46.1614 12.714C50.7024 2.04342 86.5389 -8.58147 99.9687 14.6069C111.27 34.1199 119.668 29.6739 126.822 28.8348C137.139 27.6243 154.873 48.474 136.129 62.903Z" fill="#0B102C" fill-opacity="0.6"/>
<path d="M75.8249 60.0337C75.8249 60.0337 38.8788 101.534 38.4519 106.136C38.4519 106.136 40.1208 106.875 41.9821 109.033C44.1367 111.53 46.7188 112.483 48.0118 111.78C49.8746 110.767 49.7146 109.373 49.7146 109.373L78.2286 119.702C78.2286 119.702 88.2986 116.544 108.721 95.2569L114.153 87.4954L75.8249 60.0337Z" fill="#5B87FF"/>
<path d="M33.4863 66.0284C33.4863 66.0284 38.0336 69.2904 43.468 66.2154L60.5601 56.405C60.5601 56.405 66.3796 52.1101 72.3645 56.2415C72.3645 56.2415 66.9269 69.4493 78.1292 71.7095C78.1292 71.7095 89.062 76.7199 94.8468 81.8636C97.7553 84.4514 103.976 88.8403 106.934 91.3187C107.728 91.983 109.352 92.976 110.176 93.9714C111.32 95.354 113.506 98.3686 109.998 101.293C109.998 101.293 107.66 104.04 102.975 101.149C98.6211 98.4622 91.0304 92.2301 86.4295 89.3311C86.1798 89.1739 85.0397 88.9416 86.6301 90.493C88.5921 92.4056 97.7546 99.1784 97.7546 99.1784C97.7546 99.1784 101.182 101.558 101.996 102.766C102.711 103.826 103.812 106.152 101.762 108.679C101.762 108.679 98.8518 112.515 93.8617 109.467L82.4047 101.469C82.4047 101.469 79.9683 99.8964 81.9273 102.192C81.9273 102.192 93.5548 110.361 94.012 111.604C95.3155 115.148 92.7931 119.706 87.1271 117.505L74.0001 110.328C74.0001 110.328 72.8003 110.153 73.7823 111.11C73.7823 111.11 85.962 117.395 86.8058 118.086C87.9093 118.989 85.2296 123.246 79.6775 121.541C71.7581 119.11 55.7513 114.733 48.0111 111.779C45.2878 110.741 39.6937 107.965 37.5376 106.66C37.5376 106.66 28.8888 101.217 17.0454 100.991L25.578 64.6219L33.4863 66.0284Z" fill="#A9C4FF"/>
<path d="M46.7157 114.231C46.7157 114.231 49.2166 110.927 50.7627 109.732C53.8991 107.309 59.5581 109.658 59.8331 112.627C59.8331 112.627 61.0531 115.546 55.9938 119.85C55.0585 120.645 52.0864 122.535 47.7406 118.964C47.7405 118.964 45.1478 116.579 46.7157 114.231Z" fill="#799DFF"/>
<path d="M51.728 84.8644C51.728 84.8644 58.9747 90.6036 66.4764 73.5301C66.4764 73.5301 70.4679 74.9209 76.669 71.3247L77.961 69.3154C77.961 69.3154 65.3666 70.6559 65.4222 70.9035C65.4778 71.1512 51.728 84.8644 51.728 84.8644Z" fill="#D0E1FF"/>
<path d="M57.4921 120.692C57.403 118.501 60.4746 114.481 61.8189 113.063C63.4029 111.391 69.6406 109.792 70.3652 116.433C70.3652 116.433 69.9786 121.086 66.5136 123.739C64.8664 125.001 57.6807 125.338 57.4921 120.692Z" fill="#799DFF"/>
<path d="M71.4735 117.378C72.5349 115.69 77.7971 114.884 77.9146 119.733C77.9589 121.569 77.0026 124.595 74.2761 125.795C72.294 126.667 67.0623 125.248 68.0569 123.122C68.7398 121.66 69.0738 121.193 71.4735 117.378Z" fill="#799DFF"/>
<path d="M37.4181 109.902C37.8753 108.897 38.6308 107.933 40.1395 106.718C41.0524 105.983 43.6174 105.697 45.1599 106.661C46.267 107.353 48.4496 108.974 47.9604 110.416C47.0299 113.156 45.4524 116.868 42.037 115.796C42.0369 115.795 35.3795 114.383 37.4181 109.902Z" fill="#799DFF"/>
<path d="M32.1225 62.4496L25.1519 107.764L2.76904 103.457L12.6888 57.2946L32.1225 62.4496Z" fill="#E94A4A"/>
<path d="M39.883 108.375C39.883 108.375 38.7887 111.48 40.7317 112.784C40.7317 112.784 43.2321 115.785 46.3272 110.828C46.843 110.002 45.6898 108.544 43.647 107.999C43.6471 107.999 41.7117 107.254 39.883 108.375Z" fill="#D4E5FF"/>
<path d="M49.788 113.958C49.788 113.958 51.0619 111.107 52.144 110.669C53.2583 110.218 56.6061 110.145 58.0128 113.433C58.2548 113.999 57.381 115.18 56.9877 115.806C56.2627 116.962 54.3909 118.692 52.2149 117.503C52.2147 117.503 49.4309 116.498 49.788 113.958Z" fill="#D4E5FF"/>
<path d="M61.1794 116.399C61.4817 115.57 62.6549 114.061 63.7227 113.954C65.479 113.779 69.535 115.082 68.4631 117.679C68.4631 117.679 67.5429 119.881 65.5682 120.394C65.5682 120.394 62.1436 121.622 60.8767 118.435C60.6862 117.957 61.0041 116.882 61.1794 116.399Z" fill="#D4E5FF"/>
<path d="M70.4788 121.379C70.9845 122.64 73.1533 123.944 74.4771 122.742C75.0137 122.255 76.1192 120.627 76.1797 119.906C76.2809 118.685 73.8796 116.109 71.7759 118.508C71.2794 119.075 70.1986 120.68 70.4788 121.379Z" fill="#D4E5FF"/>
<path d="M80.7759 55.0654C80.7759 55.0654 73.4519 52.7556 67.8496 58.3803L58.4595 64.1298C58.4595 64.1298 54.4544 65.4577 53.2155 70.8163L48.95 79.6852C48.95 79.6852 45.5038 85.7707 55.5537 84.9373C55.5537 84.9373 61.3057 82.5063 65.8725 73.2699L65.8404 72.0909C65.8404 72.0909 66.4912 73.5453 69.8105 72.9614C69.8105 72.9614 73.2385 71.7748 77.9799 70.2047C77.9799 70.2047 78.7494 71.1412 83.304 73.6423C83.304 73.6423 94.4394 79.4689 97.0282 82.5751L110.369 92.7285C110.369 92.7285 112.44 91.9013 117.593 83.8876L129.091 79.8006L117.028 46.8914C117.028 46.8914 98.6629 54.0837 93.2701 54.6214L80.7759 55.0654Z" fill="#799DFF"/>
<path d="M109.002 47.6918L124.891 85.0956L141.799 78.5334L125.189 40.6738L109.002 47.6918Z" fill="#F47575"/>
<path d="M51.0686 75.2796C51.0686 75.2796 55.1049 73.7518 56.2951 76.5461C56.2951 76.5461 55.0688 81.5279 53.6891 82.6323C52.6226 83.4873 49.0816 83.837 48.3853 82.0142C48.3853 82.0142 47.9473 80.1362 51.0686 75.2796Z" fill="#D4E5FF"/>
<path d="M87.4624 75.934C87.4624 75.934 94.9709 79.0185 102.556 72.9424C102.556 72.9424 97.3454 79.9639 90.3321 77.6293L87.4624 75.934Z" fill="#D0E1FF"/>
<path d="M17.5716 99.036C17.6206 99.5269 17.523 100.021 17.291 100.457C17.059 100.892 16.7031 101.249 16.2684 101.482C15.8336 101.715 15.3394 101.814 14.8484 101.766C14.3574 101.719 13.8915 101.526 13.5098 101.214C13.128 100.901 12.8475 100.483 12.7037 100.011C12.56 99.5389 12.5594 99.0349 12.702 98.5626C12.8447 98.0904 13.1242 97.671 13.5052 97.3576C13.8862 97.0442 14.3516 96.8508 14.8425 96.8019C15.5006 96.7364 16.1578 96.935 16.6696 97.3539C17.1813 97.7729 17.5058 98.3779 17.5716 99.036Z" fill="white"/>
<path d="M133.613 74.8914C133.662 75.3822 133.564 75.8765 133.332 76.3117C133.1 76.7469 132.744 77.1036 132.31 77.3366C131.875 77.5696 131.381 77.6685 130.89 77.6207C130.399 77.573 129.933 77.3807 129.552 77.0683C129.17 76.7558 128.89 76.3372 128.746 75.8654C128.602 75.3936 128.602 74.8898 128.744 74.4176C128.887 73.9455 129.166 73.5262 129.547 73.2128C129.928 72.8995 130.393 72.7061 130.884 72.6571C131.21 72.6246 131.539 72.6566 131.853 72.7513C132.166 72.846 132.458 73.0015 132.711 73.209C132.965 73.4164 133.175 73.6718 133.33 73.9605C133.484 74.2492 133.581 74.5655 133.613 74.8914Z" fill="white"/>
</svg>
