<svg width="20" height="20" viewBox="0 0 20 20" fill="none" xmlns="http://www.w3.org/2000/svg">
<rect width="20" height="20" rx="10" fill="#9A39C8"/>
<path d="M13.05 12.875H6.95C5.79 12.875 5.125 12.21 5.125 11.05V5C5.125 4.795 5.295 4.625 5.5 4.625H14.5C14.705 4.625 14.875 4.795 14.875 5V11.05C14.875 12.21 14.21 12.875 13.05 12.875ZM5.875 5.375V11.05C5.875 11.795 6.205 12.125 6.95 12.125H13.045C13.79 12.125 14.12 11.795 14.12 11.05V5.375H5.875Z" fill="white"/>
<path d="M15 5.375H5C4.795 5.375 4.625 5.205 4.625 5C4.625 4.795 4.795 4.625 5 4.625H15C15.205 4.625 15.375 4.795 15.375 5C15.375 5.205 15.205 5.375 15 5.375Z" fill="white"/>
<path d="M8.00013 15.375C7.86013 15.375 7.73013 15.3 7.66513 15.17C7.57013 14.985 7.64514 14.76 7.83514 14.665L9.62513 13.77V12.5C9.62513 12.295 9.79513 12.125 10.0001 12.125C10.2051 12.125 10.3751 12.295 10.3751 12.5V14C10.3751 14.14 10.2951 14.27 10.1651 14.335L8.16513 15.335C8.11513 15.36 8.05513 15.375 8.00013 15.375Z" fill="white"/>
<path d="M12 15.375C11.945 15.375 11.885 15.36 11.835 15.335L9.83498 14.335C9.64998 14.24 9.57497 14.015 9.66497 13.83C9.75997 13.645 9.98497 13.57 10.17 13.66L12.17 14.66C12.355 14.755 12.43 14.98 12.34 15.165C12.27 15.3 12.135 15.375 12 15.375Z" fill="white"/>
<path d="M7.74996 9.87499C7.64496 9.87499 7.53497 9.83 7.45997 9.74C7.32497 9.58 7.34996 9.345 7.50996 9.21L9.08497 7.895C9.22997 7.775 9.41496 7.725 9.58996 7.755C9.76996 7.785 9.92497 7.89499 10.02 8.05499L10.545 8.92999L12.01 7.71C12.17 7.58 12.405 7.59999 12.54 7.75999C12.675 7.91999 12.65 8.15499 12.49 8.28999L10.915 9.60499C10.77 9.72499 10.585 9.77499 10.41 9.74499C10.23 9.71499 10.075 9.605 9.97996 9.445L9.45496 8.57L7.98997 9.78999C7.91997 9.84499 7.83496 9.87499 7.74996 9.87499Z" fill="white"/>
</svg>
