<svg width="25" height="24" viewBox="0 0 25 24" fill="none" xmlns="http://www.w3.org/2000/svg">
<path d="M15.31 20.18C15.05 20.18 14.78 20.17 14.49 20.14C13.97 20.1 13.38 20 12.77 19.85L11.09 19.45C6.48001 18.36 4.97001 15.92 6.05001 11.32L7.03001 7.13001C7.25001 6.18002 7.51001 5.41002 7.83001 4.77002C9.55001 1.22002 12.84 1.54001 15.18 2.09001L16.85 2.48001C19.19 3.03001 20.67 3.90001 21.5 5.23002C22.32 6.56002 22.45 8.27001 21.9 10.61L20.92 14.79C20.06 18.45 18.27 20.18 15.31 20.18ZM12.62 3.25001C10.95 3.25001 9.89001 3.94002 9.18001 5.42002C8.92001 5.96002 8.69001 6.63001 8.49001 7.47001L7.51001 11.66C6.62001 15.44 7.65001 17.09 11.43 17.99L13.11 18.39C13.65 18.52 14.16 18.6 14.62 18.64C17.34 18.91 18.69 17.72 19.45 14.45L20.43 10.27C20.88 8.34002 20.82 6.99002 20.22 6.02001C19.62 5.05001 18.44 4.39002 16.5 3.94002L14.83 3.55001C14 3.35001 13.26 3.25001 12.62 3.25001Z" fill="white"/>
<path d="M7.82999 22.2502C5.25999 22.2502 3.61999 20.7102 2.56999 17.4602L1.28999 13.5102C-0.130009 9.11017 1.13999 6.63017 5.51999 5.21017L7.09999 4.70017C7.61999 4.54017 8.00999 4.43017 8.35999 4.37017C8.64999 4.31017 8.92999 4.42017 9.09999 4.65017C9.26999 4.88017 9.29999 5.18017 9.17999 5.44017C8.91999 5.97017 8.68999 6.64017 8.49999 7.48017L7.51999 11.6702C6.62999 15.4502 7.65999 17.1002 11.44 18.0002L13.12 18.4002C13.66 18.5302 14.17 18.6102 14.63 18.6502C14.95 18.6802 15.21 18.9002 15.3 19.2102C15.38 19.5202 15.26 19.8402 15 20.0202C14.34 20.4702 13.51 20.8502 12.46 21.1902L10.88 21.7102C9.72999 22.0702 8.72999 22.2502 7.82999 22.2502ZM7.27999 6.22017L5.98999 6.64017C2.41999 7.79017 1.56999 9.47017 2.71999 13.0502L3.99999 17.0002C5.15999 20.5702 6.83999 21.4302 10.41 20.2802L11.99 19.7602C12.05 19.7402 12.1 19.7202 12.16 19.7002L11.1 19.4502C6.48999 18.3602 4.97999 15.9202 6.05999 11.3202L7.03999 7.13017C7.10999 6.81017 7.18999 6.50017 7.27999 6.22017Z" fill="white"/>
<path d="M16.99 10.5098C16.93 10.5098 16.87 10.4998 16.8 10.4898L11.95 9.25978C11.55 9.15978 11.31 8.74978 11.41 8.34978C11.51 7.94978 11.92 7.70978 12.32 7.80978L17.17 9.03978C17.57 9.13978 17.81 9.54978 17.71 9.94978C17.63 10.2798 17.32 10.5098 16.99 10.5098Z" fill="white"/>
<path d="M14.06 13.8899C14 13.8899 13.94 13.8799 13.87 13.8699L10.96 13.1299C10.56 13.0299 10.32 12.6199 10.42 12.2199C10.52 11.8199 10.93 11.5799 11.33 11.6799L14.24 12.4199C14.64 12.5199 14.88 12.9299 14.78 13.3299C14.7 13.6699 14.4 13.8899 14.06 13.8899Z" fill="white"/>
</svg>
