<svg width="13" height="12" viewBox="0 0 13 12" fill="none" xmlns="http://www.w3.org/2000/svg">
<path d="M7.28498 11.19C7.16998 11.19 7.05499 11.17 6.94499 11.13C6.56999 10.99 6.32998 10.64 6.32998 10.24V7.015H5.15998C4.77998 7.015 4.44998 6.8 4.29498 6.455C4.13998 6.11 4.19998 5.72 4.44998 5.435L8.23498 1.135C8.49998 0.835001 8.90998 0.730001 9.28498 0.875001C9.65998 1.015 9.89997 1.365 9.89997 1.765V4.99H11.07C11.45 4.99 11.78 5.205 11.935 5.55C12.09 5.895 12.03 6.285 11.78 6.57L7.99498 10.87C7.80998 11.08 7.54998 11.19 7.28498 11.19ZM8.93998 1.56C8.89498 1.56 8.83998 1.575 8.79498 1.63L5.00998 5.935C4.92998 6.025 4.95999 6.115 4.97499 6.15C4.98999 6.185 5.03998 6.27 5.15998 6.27H6.70498C6.90998 6.27 7.07998 6.44 7.07998 6.645V10.245C7.07998 10.37 7.16999 10.42 7.20999 10.435C7.24999 10.45 7.34997 10.475 7.42997 10.38L11.215 6.075C11.295 5.985 11.265 5.895 11.25 5.86C11.235 5.825 11.185 5.74 11.065 5.74H9.51999C9.31499 5.74 9.14499 5.57 9.14499 5.365V1.765C9.14499 1.64 9.05498 1.59 9.01498 1.575C8.99998 1.565 8.96998 1.56 8.93998 1.56Z" fill="white"/>
<path d="M4.75 2.375H1.25C1.045 2.375 0.875 2.205 0.875 2C0.875 1.795 1.045 1.625 1.25 1.625H4.75C4.955 1.625 5.125 1.795 5.125 2C5.125 2.205 4.955 2.375 4.75 2.375Z" fill="white"/>
<path d="M4.25 10.375H1.25C1.045 10.375 0.875 10.205 0.875 10C0.875 9.795 1.045 9.625 1.25 9.625H4.25C4.455 9.625 4.625 9.795 4.625 10C4.625 10.205 4.455 10.375 4.25 10.375Z" fill="white"/>
<path d="M2.75 6.375H1.25C1.045 6.375 0.875 6.205 0.875 6C0.875 5.795 1.045 5.625 1.25 5.625H2.75C2.955 5.625 3.125 5.795 3.125 6C3.125 6.205 2.955 6.375 2.75 6.375Z" fill="white"/>
</svg>
